<svg xmlns="http://www.w3.org/2000/svg" viewBox="0 0 64 64">
  <rect width="64" height="64" rx="10" fill="#F0D9C0"/>
  <!-- Poodle curly top -->
  <circle cx="28" cy="13" r="5" fill="#A04525"/>
  <circle cx="34" cy="11" r="5.5" fill="#A04525"/>
  <circle cx="38" cy="15" r="4.5" fill="#A04525"/>
  <circle cx="24" cy="16" r="4" fill="#A04525"/>
  <circle cx="31" cy="9" r="4" fill="#A04525"/>
  <!-- Head/neck -->
  <ellipse cx="32" cy="22" rx="8" ry="6" fill="#A04525"/>
  <!-- Body -->
  <path d="M26 24 C24 28, 23 34, 24 42 C25 46, 28 48, 32 48 C36 48, 38 46, 38 42 C38 36, 37 28, 36 24 Z" fill="#A04525"/>
  <!-- Snout -->
  <path d="M38 18 C40 17, 44 17, 46 18 C48 19, 48 21, 46 22 C44 23, 40 22, 38 21 Z" fill="#A04525"/>
  <!-- Eye -->
  <circle cx="37" cy="18" r="1.5" fill="#F0D9C0"/>
  <!-- PT initials -->
  <text x="38" y="56" text-anchor="middle" font-family="Georgia,serif" font-size="9" font-style="italic" fill="#A04525" opacity="0.7">PT</text>
</svg>
